<svg version="1.1" xmlns="http://www.w3.org/2000/svg" viewBox="-2212.7486414726586 -1482.075 10823.448641472658 2259.15"><desc>Created with Snap</desc><defs></defs><g><rect x="-2212.7486414726586" y="-1482.075" width="10823.448641472658" height="2259.15" fill="#4a274f" style=""></rect><g transform="matrix(17.0794,0,0,17.0794,-1934.5837,-1212.4498)"><path d="M79.1,71.8l3.5,2l0.1-0.2c4.9-6.8,7.5-14.9,7.5-23.4c0.1-10.9-4-21.1-11.6-28.7C71,13.8,60.8,9.6,50,9.6  C27.7,9.6,9.6,27.7,9.6,50S27.7,90.4,50,90.4c3.9,0,7.6-0.5,11.1-1.6l0.2-0.1l-0.8-4l-0.3,0.1c-3.4,1-6.9,1.6-10.4,1.6  c-20,0-36.3-16.3-36.3-36.3c0-20,16.3-36.3,36.3-36.3s36.3,16.3,36.3,36.3c0,7.7-2.4,15.1-7,21.5L79.1,71.8z" fill="#efa07b" style=""></path><path d="M84.1,16.3C75,7.2,62.9,2.2,50,2.2c-4.5,0-8.8,0.6-12.9,1.8L36.9,4l0.7,3.7l0.3-0.1C41.8,6.5,45.9,6,50,6  c24.5,0,44.5,19.9,44.5,44.5S74.5,94.9,50,94.9C25.5,94.8,5.5,74.8,5.5,50.3c0-9.3,2.8-18.1,8.2-25.7l0.2-0.2l-3.3-1.9l-0.1,0.2  c-5.7,8.1-8.8,17.7-8.8,27.7c0,26.5,21.6,48.1,48.1,48.1c26.6,0,48.2-21.6,48.2-48.1C98.2,37.6,93.2,25.5,84.1,16.3z" fill="#efa07b" style=""></path><path d="M76.9,48.3c-0.3-1.2-1.3-1.5-1.3-1.5L71,47.3l-4.2-9.8c-0.4-1.1-1.7-2.9-4.5-3.2H37.9h-0.2  c-2.8,0.3-4.1,2.1-4.5,3.2l-4.1,9.8l-4.4-0.5c0,0-1,0.3-1.3,1.5c-0.3,1.2-0.6,3.4,2.2,4.1l1.5,0.2c-1.9,3.5-3.8,9.9,1.4,15.2  c0.1,0.1,1.4,1.1,2.1,1.3v3.1c0,1.2,1,2.1,2.1,2.1h2.8c1.2,0,2.1-1,2.1-2.1v-2.9h24.9v2.9c0,1.2,1,2.1,2.1,2.1h2.9  c1.2,0,2.1-1,2.1-2.1v-3.1c0.8-0.2,1.5-0.7,2-1.3c5.3-5.3,3.6-11.6,1.8-15.3l1.3-0.1C77.5,51.7,77.2,49.6,76.9,48.3z M36.5,38.8  L36.5,38.8l0.1-0.1c0.1-0.1,0.3-0.7,1.4-0.9h24c1.1,0.1,1.4,0.7,1.4,0.8l4.1,9.7l-35.1-0.1L36.5,38.8z M34.8,60.6  c-1.7,0-3.1-1.4-3.1-3.1c0-1.7,1.4-3.1,3.1-3.1c1.7,0,3.1,1.4,3.1,3.1C37.9,59.2,36.5,60.6,34.8,60.6z M64.9,60.6  c-1.7,0-3.1-1.4-3.1-3.1c0-1.7,1.4-3.1,3.1-3.1c1.7,0,3.1,1.4,3.1,3.1C68,59.2,66.6,60.6,64.9,60.6z" fill="#efa07b" style=""></path><circle cx="25.7" cy="41.3" r="1.6" fill="#efa07b" style=""></circle><circle cx="75.5" cy="40.3" r="1.6" fill="#efa07b" style=""></circle><circle cx="57.2" cy="27.8" r="1.6" fill="#efa07b" style=""></circle><polygon points="29.9,32.4 32.2,31.4 30,30.5 28.9,27.9 27.9,30.5 25.7,31.4 28,32.4 29,34.7 " fill="#efa07b" style=""></polygon><polygon points="71.7,30.6 70.6,28.1 69.6,30.6 67.4,31.5 69.7,32.5 70.7,34.8 71.6,32.5 73.9,31.5 " fill="#efa07b" style=""></polygon><polygon points="45.8,28.1 48.1,27.2 45.9,26.3 44.8,23.7 43.8,26.3 41.6,27.2 43.9,28.1 44.9,30.5 " fill="#efa07b" style=""></polygon><desc>Created with Snap</desc><defs></defs></g><g><g transform="matrix(0.5,0,0,-0.5,0,0)"><path d="M93 1421L630 1421L630 1362Q601 1350 575 1343Q549 1336 530 1325Q487 1301 487 1237L487 184Q487 120 530 96Q550 85 576 78Q602 71 632 59L632 0L93 0L93 59Q122 71 148 78Q174 85 194 96Q238 120 238 184L238 1237Q238 1301 194 1325Q174 1336 148 1343Q122 1350 93 1362L93 1421ZM1119 987L1131 750L1131 197Q1131 107 1175 90Q1189 84 1205 80Q1258 65 1280 53L1280 0L798 0L798 53Q817 65 838 72Q859 80 877 90Q918 111 918 158L918 737Q918 852 899 870Q881 888 863 896Q846 904 827 909Q808 915 794 926L794 987L1119 987ZM1437 718Q1393 718 1368 739Q1343 760 1343 791Q1343 822 1369 852Q1360 858 1346 858Q1278 857 1214 762L1214 916Q1288 1008 1382 1008Q1490 1008 1527 914Q1539 885 1539 836Q1539 787 1510 752Q1481 718 1437 718ZM1634 987L1974 993L1974 158Q1974 111 2015 90Q2034 80 2056 72Q2078 65 2099 53L2099 0L1634 0L1634 53Q1655 65 1677 72Q1700 80 1719 90Q1761 111 1761 158L1761 827Q1761 880 1721 900Q1703 909 1680 914Q1657 920 1634 932L1634 987ZM1724 1303Q1724 1361 1761 1396Q1798 1432 1841 1432Q1885 1432 1909 1422Q1934 1413 1952 1396Q1990 1360 1990 1303Q1990 1247 1952 1211Q1915 1176 1856 1176Q1798 1176 1761 1211Q1724 1246 1724 1303ZM2646 -26L2646 53Q2721 64 2766 108Q2812 153 2812 212Q2812 271 2788 303Q2765 336 2726 359Q2688 383 2639 401Q2590 420 2539 438Q2488 457 2439 480Q2390 503 2351 535Q2266 606 2266 721Q2266 824 2344 904Q2432 996 2574 1007L2574 928Q2516 917 2481 880Q2447 843 2447 793Q2447 743 2471 713Q2495 684 2534 662Q2574 641 2624 623Q2675 606 2728 586Q2781 567 2831 543Q2882 520 2921 485Q3009 407 3009 283Q3009 174 2927 88Q2829 -15 2646 -26ZM2714 772Q2714 847 2769 868Q2738 923 2657 931L2657 1007Q2789 997 2877 934Q2964 871 2964 782Q2964 728 2930 697Q2897 666 2839 666Q2782 666 2748 695Q2714 724 2714 772ZM2506 209Q2506 134 2451 113Q2482 58 2563 50L2563 -26Q2434 -18 2343 47Q2256 110 2256 199Q2256 253 2289 284Q2323 315 2380 315Q2438 315 2472 286Q2506 257 2506 209ZM3484 1427L3484 158Q3484 111 3525 90Q3544 80 3566 72Q3589 65 3610 53L3610 0L3144 0L3144 53Q3166 65 3188 72Q3211 80 3229 90Q3270 111 3270 158L3270 1262Q3270 1316 3230 1334Q3212 1343 3189 1348Q3166 1354 3142 1366L3142 1427L3484 1427ZM3717 901Q3635 901 3567 839L3567 948Q3655 1008 3771 1008Q3905 1008 3991 936Q4084 858 4084 725L4084 158Q4084 112 4126 90Q4144 80 4166 72Q4188 65 4208 53L4208 0L3821 0L3821 72Q3821 90 3829 99Q3837 109 3846 118Q3871 145 3871 176L3871 729Q3871 901 3717 901ZM5746 337L5693 512L5962 1421L6411 1421L6411 1362Q6387 1350 6363 1343Q6339 1337 6320 1328Q6278 1306 6278 1253L6278 184Q6278 122 6321 98Q6340 87 6365 79Q6390 71 6418 59L6418 0L5895 0L5895 59Q5919 71 5942 79Q5966 87 5985 98Q6028 123 6028 184L6028 1278L6024 1278L5746 337ZM5013 1224L5127 1181L5127 213Q5127 135 5173 103Q5194 89 5220 80Q5247 72 5274 59L5274 0L4873 0L4873 59Q4897 71 4922 78Q4947 86 4967 100Q5013 131 5013 211L5013 1224ZM5528 0L5131 1257Q4920 1338 4873 1362L4873 1421L5324 1421L5707 206L5646 0L5528 0ZM6987 53L6987 -25Q6816 -8 6706 120Q6583 263 6583 489Q6583 717 6706 860Q6817 989 6987 1006L6987 928Q6899 911 6858 813Q6814 705 6814 489Q6814 172 6912 88Q6945 61 6987 53ZM7070 -26L7070 52Q7247 82 7247 489Q7247 812 7143 896Q7110 922 7070 929L7070 1007Q7240 994 7354 864Q7480 719 7480 489Q7480 260 7356 117Q7242 -13 7070 -26ZM8030 881L8030 969L8194 969L8194 881L8030 881ZM7947 1321L7947 -26Q7774 -18 7743 128Q7733 174 7733 231L7733 881L7598 881L7598 942Q7613 955 7630 963Q7648 972 7665 980Q7709 1002 7729 1033Q7749 1065 7762 1101Q7776 1138 7785 1174Q7795 1211 7803 1246Q7812 1281 7825 1315L7947 1321ZM8030 -24L8030 65Q8105 65 8147 172Q8160 205 8172 244L8236 229Q8209 50 8113 0Q8078 -18 8030 -24ZM8743 53L8743 -25Q8572 -8 8462 120Q8339 263 8339 489Q8339 717 8462 860Q8573 989 8743 1006L8743 928Q8655 911 8614 813Q8570 705 8570 489Q8570 172 8668 88Q8701 61 8743 53ZM8826 -26L8826 52Q9003 82 9003 489Q9003 812 8899 896Q8866 922 8826 929L8826 1007Q8996 994 9110 864Q9236 719 9236 489Q9236 260 9112 117Q8998 -13 8826 -26ZM9707 987L9719 750L9719 197Q9719 107 9763 90Q9777 84 9793 80Q9846 65 9868 53L9868 0L9386 0L9386 53Q9405 65 9426 72Q9447 80 9465 90Q9506 111 9506 158L9506 737Q9506 852 9487 870Q9469 888 9451 896Q9434 904 9415 909Q9396 915 9382 926L9382 987L9707 987ZM10025 718Q9981 718 9956 739Q9931 760 9931 791Q9931 822 9957 852Q9948 858 9934 858Q9866 857 9802 762L9802 916Q9876 1008 9970 1008Q10078 1008 10115 914Q10127 885 10127 836Q10127 787 10098 752Q10069 718 10025 718ZM11126 0L10737 0L10737 59Q10761 74 10791 82Q10822 90 10835 97Q10848 104 10857 119Q10877 150 10877 233L10877 1186Q10877 1270 10862 1293Q10848 1316 10835 1322Q10823 1329 10807 1334Q10757 1348 10737 1362L10737 1421L11126 1421L11126 0ZM11209 0L11209 82L11228 81Q11453 81 11547 128Q11646 178 11687 326Q11696 357 11702 382Q11709 408 11717 429Q11732 473 11759 500L11824 500L11824 0L11209 0ZM11209 1421L11579 1421Q11641 1421 11779 1436L11779 946L11709 946Q11674 991 11655 1047Q11636 1103 11616 1156Q11596 1209 11576 1241Q11556 1273 11526 1295Q11466 1339 11363 1339Q11261 1339 11209 1324L11209 1421ZM11209 658L11209 846L11501 846L11501 658L11209 658ZM12511 203L12458 339L12591 702Q12633 817 12633 843Q12633 870 12619 881Q12606 892 12586 897Q12567 903 12545 906Q12524 910 12507 918L12507 981L12875 981L12875 918Q12863 909 12846 905Q12830 901 12812 894Q12761 873 12742 810Q12739 800 12735 791L12511 203ZM12421 254L12476 108L12427 -20L12312 -20L11980 840Q11967 875 11924 893Q11875 913 11859 930L11859 981L12326 981L12326 920Q12309 911 12288 907Q12267 903 12248 898Q12205 885 12205 854Q12205 834 12213 814Q12222 794 12235 755Q12249 716 12268 663Q12288 611 12311 549Q12334 487 12361 414Q12388 341 12421 254ZM13223 596L13550 596Q13550 884 13406 920L13406 1006Q13593 989 13694 849Q13789 718 13789 508L13223 508L13223 596ZM13410 -26L13410 61Q13584 69 13657 225Q13678 270 13693 317L13779 285Q13723 76 13550 4Q13489 -21 13410 -26ZM13139 553Q13139 123 13327 69L13327 -23Q13131 -1 13016 140Q12901 279 12901 489Q12901 710 13016 852Q13132 995 13323 1007L13323 924Q13139 902 13139 553ZM14526 901Q14443 901 14374 836L14374 945Q14462 1008 14581 1008Q14719 1008 14804 936Q14891 861 14891 725L14891 199Q14891 104 14930 88Q14942 83 14956 80Q14994 70 15015 53L15015 0L14628 0L14628 68Q14628 87 14645 103Q14662 119 14670 130Q14678 142 14678 164L14678 735Q14678 901 14526 901ZM14291 987L14291 203Q14291 109 14331 90Q14343 85 14357 80Q14398 67 14417 53L14417 0L13951 0L13951 53Q13969 67 13996 76Q14024 85 14036 90Q14049 95 14058 108Q14077 134 14077 201L14077 778Q14077 877 14038 893Q14026 898 14012 902Q13968 912 13949 926L13949 987L14291 987ZM15541 881L15541 969L15705 969L15705 881L15541 881ZM15458 1321L15458 -26Q15285 -18 15254 128Q15244 174 15244 231L15244 881L15109 881L15109 942Q15124 955 15141 963Q15159 972 15176 980Q15220 1002 15240 1033Q15260 1065 15273 1101Q15287 1138 15296 1174Q15306 1211 15314 1246Q15323 1281 15336 1315L15458 1321ZM15541 -24L15541 65Q15616 65 15658 172Q15671 205 15683 244L15747 229Q15720 50 15624 0Q15589 -18 15541 -24ZM16244 -26L16244 53Q16319 64 16364 108Q16410 153 16410 212Q16410 271 16386 303Q16363 336 16324 359Q16286 383 16237 401Q16188 420 16137 438Q16086 457 16037 480Q15988 503 15949 535Q15864 606 15864 721Q15864 824 15942 904Q16030 996 16172 1007L16172 928Q16114 917 16079 880Q16045 843 16045 793Q16045 743 16069 713Q16093 684 16132 662Q16172 641 16222 623Q16273 606 16326 586Q16379 567 16429 543Q16480 520 16519 485Q16607 407 16607 283Q16607 174 16525 88Q16427 -15 16244 -26ZM16312 772Q16312 847 16367 868Q16336 923 16255 931L16255 1007Q16387 997 16475 934Q16562 871 16562 782Q16562 728 16528 697Q16495 666 16437 666Q16380 666 16346 695Q16312 724 16312 772ZM16104 209Q16104 134 16049 113Q16080 58 16161 50L16161 -26Q16032 -18 15941 47Q15854 110 15854 199Q15854 253 15887 284Q15921 315 15978 315Q16036 315 16070 286Q16104 257 16104 209Z" fill="#ffffff" style=""></path></g></g></g></svg>